<svg width="18" height="17" viewBox="0 0 18 17" fill="none" xmlns="http://www.w3.org/2000/svg">
<path d="M4.54793 1.8818C4.52439 0.813602 3.76052 0 2.5201 0C1.27969 0 0.46875 0.813602 0.46875 1.8818C0.46875 2.92787 1.25572 3.7649 2.47304 3.7649H2.49621C3.76052 3.7649 4.54793 2.92787 4.54793 1.8818Z" fill="#C8C8C8"/>
<path d="M4.30912 5.25195H0.683167V16.1464H4.30912V5.25195Z" fill="#C8C8C8"/>
<path d="M13.2109 4.99609C15.5969 4.99609 17.3857 6.55352 17.3857 9.89983L17.3855 16.1464H13.7597V10.3178C13.7597 8.85384 13.235 7.85484 11.9224 7.85484C10.9207 7.85484 10.324 8.52831 10.062 9.17878C9.96608 9.4119 9.94255 9.73671 9.94255 10.0623V16.1467H6.31616C6.31616 16.1467 6.36395 6.27449 6.31616 5.25221H9.94255V6.79532C10.4238 6.05352 11.2857 4.99609 13.2109 4.99609Z" fill="#C8C8C8"/>
</svg>
