<svg width="18" height="13" viewBox="0 0 18 13" fill="none" xmlns="http://www.w3.org/2000/svg">
<path fill-rule="evenodd" clip-rule="evenodd" d="M15.6698 0.499032C16.4042 0.700541 16.9825 1.29429 17.1788 2.04829C17.5354 3.41484 17.5354 6.26615 17.5354 6.26615C17.5354 6.26615 17.5354 9.11735 17.1788 10.484C16.9825 11.238 16.4042 11.8317 15.6698 12.0334C14.339 12.3995 9.00208 12.3995 9.00208 12.3995C9.00208 12.3995 3.66516 12.3995 2.33425 12.0334C1.5999 11.8317 1.02157 11.238 0.825308 10.484C0.46875 9.11735 0.46875 6.26615 0.46875 6.26615C0.46875 6.26615 0.46875 3.41484 0.825308 2.04829C1.02157 1.29429 1.5999 0.700541 2.33425 0.499032C3.66516 0.132812 9.00208 0.132812 9.00208 0.132812C9.00208 0.132812 14.339 0.132812 15.6698 0.499032ZM7.4021 3.86609V9.19942L11.6688 6.53286L7.4021 3.86609Z" fill="#C8C8C8"/>
</svg>
