<svg width="18" height="18" viewBox="0 0 18 18" fill="none" xmlns="http://www.w3.org/2000/svg">
<path fill-rule="evenodd" clip-rule="evenodd" d="M9.00288 0.46875C6.68535 0.46875 6.3945 0.478883 5.48427 0.520306C4.57582 0.561907 3.95572 0.70573 3.41314 0.916755C2.85189 1.13471 2.37579 1.42627 1.90148 1.90076C1.4268 2.37508 1.13525 2.85117 0.916577 3.41225C0.705019 3.95501 0.561018 4.57528 0.520128 5.48338C0.479417 6.39361 0.46875 6.68464 0.46875 9.00217C0.46875 11.3197 0.479061 11.6097 0.520306 12.5199C0.562084 13.4284 0.705908 14.0484 0.916755 14.591C1.13489 15.1523 1.42645 15.6284 1.90094 16.1027C2.37508 16.5774 2.85117 16.8696 3.41207 17.0876C3.95501 17.2986 4.57528 17.4424 5.48356 17.484C6.39379 17.5255 6.68446 17.5356 9.00182 17.5356C11.3195 17.5356 11.6095 17.5255 12.5197 17.484C13.4282 17.4424 14.049 17.2986 14.5919 17.0876C15.153 16.8696 15.6284 16.5774 16.1025 16.1027C16.5772 15.6284 16.8687 15.1523 17.0874 14.5912C17.2972 14.0484 17.4412 13.4282 17.4839 12.5201C17.5248 11.6098 17.5354 11.3197 17.5354 9.00217C17.5354 6.68464 17.5248 6.39379 17.4839 5.48356C17.4412 4.5751 17.2972 3.95501 17.0874 3.41243C16.8687 2.85117 16.5772 2.37508 16.1025 1.90076C15.6278 1.42609 15.1532 1.13453 14.5914 0.916755C14.0474 0.70573 13.4269 0.561907 12.5185 0.520306C11.6082 0.478883 11.3185 0.46875 9.00022 0.46875H9.00288ZM8.23733 2.00652C8.46453 2.00616 8.71804 2.00652 9.00285 2.00652C11.2813 2.00652 11.5513 2.0147 12.4511 2.05559C13.2831 2.09363 13.7346 2.23266 14.0354 2.34946C14.4337 2.50412 14.7176 2.68902 15.0161 2.98769C15.3147 3.28636 15.4996 3.5708 15.6546 3.96903C15.7714 4.26948 15.9107 4.72104 15.9485 5.55305C15.9894 6.45261 15.9983 6.72284 15.9983 9.00019C15.9983 11.2776 15.9894 11.5478 15.9485 12.4473C15.9105 13.2793 15.7714 13.7309 15.6546 14.0314C15.5 14.4296 15.3147 14.7131 15.0161 15.0116C14.7174 15.3103 14.4338 15.4952 14.0354 15.6499C13.735 15.7672 13.2831 15.9059 12.4511 15.9439C11.5515 15.9848 11.2813 15.9937 9.00285 15.9937C6.72425 15.9937 6.4542 15.9848 5.55463 15.9439C4.72262 15.9055 4.27106 15.7665 3.97008 15.6497C3.57186 15.495 3.28741 15.3101 2.98874 15.0115C2.69007 14.7128 2.50518 14.429 2.35016 14.0306C2.23335 13.7302 2.09415 13.2786 2.05629 12.4466C2.0154 11.5471 2.00722 11.2768 2.00722 8.99806C2.00722 6.71928 2.0154 6.45048 2.05629 5.55091C2.09433 4.7189 2.23335 4.26734 2.35016 3.96654C2.50482 3.56831 2.69007 3.28387 2.98874 2.9852C3.28741 2.68653 3.57186 2.50164 3.97008 2.34661C4.27089 2.22928 4.72262 2.09061 5.55463 2.05239C6.34184 2.01683 6.64691 2.00616 8.23733 2.00439V2.00652ZM13.5579 3.42343C12.9926 3.42343 12.5339 3.88157 12.5339 4.44708C12.5339 5.01242 12.9926 5.47109 13.5579 5.47109C14.1233 5.47109 14.5819 5.01242 14.5819 4.44708C14.5819 3.88174 14.1233 3.42343 13.5579 3.42343ZM9.0029 4.61988C6.58278 4.61988 4.62063 6.58203 4.62063 9.00215C4.62063 11.4223 6.58278 13.3835 9.0029 13.3835C11.423 13.3835 13.3845 11.4223 13.3845 9.00215C13.3845 6.58203 11.423 4.61988 9.0029 4.61988ZM9.00286 6.15767C10.5737 6.15767 11.8473 7.43111 11.8473 9.00215C11.8473 10.573 10.5737 11.8466 9.00286 11.8466C7.43183 11.8466 6.15839 10.573 6.15839 9.00215C6.15839 7.43111 7.43183 6.15767 9.00286 6.15767Z" fill="#C8C8C8"/>
</svg>
