<svg width="30" height="30" viewBox="0 0 30 30" fill="none" xmlns="http://www.w3.org/2000/svg">
<path d="M23.8264 9.81522C23.6523 9.64099 23.4455 9.50277 23.218 9.40847C22.9904 9.31416 22.7465 9.26562 22.5002 9.26562C22.2538 9.26562 22.0099 9.31416 21.7823 9.40847C21.5548 9.50277 21.348 9.64099 21.1739 9.81522L15.4414 15.5465C15.3242 15.6636 15.1653 15.7295 14.9995 15.7295C14.8338 15.7295 14.6749 15.6636 14.5577 15.5465L8.82641 9.81522C8.47483 9.46348 7.99792 9.26581 7.5006 9.26569C7.00328 9.26557 6.52628 9.46302 6.17453 9.8146C5.82279 10.1662 5.62512 10.6431 5.625 11.1404C5.62488 11.6377 5.82233 12.1147 6.17391 12.4665L11.9064 18.199C12.3127 18.6053 12.795 18.9276 13.3258 19.1475C13.8566 19.3674 14.4256 19.4805 15.0002 19.4805C15.5747 19.4805 16.1437 19.3674 16.6745 19.1475C17.2053 18.9276 17.6876 18.6053 18.0939 18.199L23.8264 12.4665C24.1779 12.1149 24.3754 11.638 24.3754 11.1409C24.3754 10.6437 24.1779 10.1668 23.8264 9.81522Z" fill="#262525"/>
</svg>
